# xmcd CD database file
#
# Track frame offsets:
#	150
#	15185
#	36929
#	61545
#	94766
#	113829
#	131756
#	169704
#	182030
#	213980
#	228841
#	239332
#	259046
#	283993
#	313965
#
# Disc length: 4572 seconds
#
# Revision: 1
# Processed by: cddbd v1.5.2PL0 Copyright (c) Steve Scherf et al.
# Submitted via: CDex 1.70beta2
#
DISCID=ca11da0f
DTITLE=The John Brothers' Piano Company - The John Brothers' Piano Company
DYEAR=2010
DGENRE=Jazz
TTITLE0=Letters
TTITLE1=Roadhouse Jackaround
TTITLE2=Terra Damnatta
TTITLE3=Mint Julep
TTITLE4=Computer Duster
TTITLE5=Daffey Duckin'
TTITLE6=The Gambler
TTITLE7=Robots
TTITLE8=The Mind Of The Dolphin
TTITLE9=The Scythe Of Time (A Predicament)
TTITLE10=Cat Stridin' Blues
TTITLE11=Ghost Town Stride
TTITLE12=Jane The Birdfeeder Lady
TTITLE13=Rocket Ship
TTITLE14=Epilogue
EXTD=YEAR: 2010
EXTT0=
EXTT1=
EXTT2=
EXTT3=
EXTT4=
EXTT5=
EXTT6=
EXTT7=
EXTT8=
EXTT9=
EXTT10=
EXTT11=
EXTT12=
EXTT13=
EXTT14=
PLAYORDER=
